<?xml version="1.0" encoding="utf-8"?>
<svg xmlns="http://www.w3.org/2000/svg" viewBox="198.047 176.8785 64 48.0347" width="64px" height="48.0347px"><g id="object-3" style="" transform="matrix(20.960620880126953, 0, 0, 22.85201644897461, -7912.015625000001, -4684.716796875)"><path fill="#fc7f7f" d="M 388.021 212.743 C 387.99 212.74 387.96 212.751 387.939 212.773 L 387.369 213.343 L 387.087 213.343 C 386.994 213.343 386.919 213.41 386.919 213.493 L 386.919 214.093 C 386.919 214.176 386.994 214.243 387.087 214.243 L 387.369 214.243 L 387.939 214.813 C 388.005 214.88 388.119 214.833 388.119 214.739 L 388.119 212.849 C 388.119 212.793 388.076 212.747 388.021 212.743" paint-order="markers stroke fill" style="stroke-width: 1;" id="object-0"/><path fill="none" stroke="#fc7f7f" stroke-linecap="round" stroke-linejoin="round" stroke-width=".165" d="M 388.344 213.268 C 388.794 213.793 388.344 214.318 388.344 214.318 M 388.644 212.968 C 389.319 213.793 388.644 214.618 388.644 214.618" paint-order="markers stroke fill" style="stroke-width: 0.165;" id="object-1"/><path fill="none" stroke="#fc7f7f" stroke-linecap="round" stroke-linejoin="round" stroke-width=".165" d="M 389.298 214.365 C 389.803 213.795 389.298 213.225 389.298 213.225 M 389.635 214.691 C 390.394 213.795 389.635 212.899 389.635 212.899" paint-order="markers stroke fill" style="stroke-width: 0.165; transform-box: fill-box; transform-origin: 50% 50%;" id="object-2" transform="matrix(-1, 0, 0, -1, -0.00003, 0)"/></g></svg>